<svg width="26" height="27" viewBox="0 0 26 27" fill="none" xmlns="http://www.w3.org/2000/svg">
<path d="M9.4707 12.7594C9.82617 12.8779 10.1393 13.0429 10.4102 13.2545C10.681 13.4661 10.9095 13.7073 11.0957 13.9781C11.2819 14.2659 11.4215 14.5833 11.5146 14.9303C11.6077 15.2773 11.6543 15.6455 11.6543 16.0348C11.6543 16.458 11.6035 16.8558 11.502 17.2281C11.4004 17.6005 11.2396 17.9476 11.0195 18.2692C10.8841 18.4892 10.736 18.6923 10.5752 18.8785C10.4144 19.0647 10.2324 19.234 10.0293 19.3864C9.79232 19.5556 9.54264 19.6995 9.28027 19.818C9.0179 19.9365 8.72591 20.0296 8.4043 20.0973C8.09961 20.1481 7.78223 20.1904 7.45215 20.2242C7.12207 20.2581 6.77083 20.275 6.39844 20.275H0V6.2594H6.88086C7.74414 6.27633 8.48047 6.40751 9.08984 6.65295C9.69922 6.8984 10.1901 7.26656 10.5625 7.75745C10.7656 8.04521 10.9222 8.36682 11.0322 8.72229C11.1423 9.07776 11.1973 9.46708 11.1973 9.89026C11.1973 10.3134 11.1423 10.6985 11.0322 11.0455C10.9222 11.3925 10.7572 11.693 10.5371 11.9469C10.4186 12.0992 10.2705 12.2431 10.0928 12.3785C9.91504 12.514 9.70768 12.6409 9.4707 12.7594ZM2.84375 8.6969V11.7946H6.29688C6.60156 11.7946 6.88086 11.7649 7.13477 11.7057C7.38867 11.6464 7.60872 11.5576 7.79492 11.4391C7.98112 11.3206 8.125 11.1598 8.22656 10.9567C8.32812 10.7535 8.37891 10.4996 8.37891 10.1949C8.37891 9.87333 8.31543 9.60673 8.18848 9.39514C8.06152 9.18355 7.87109 9.01851 7.61719 8.90002C7.39714 8.83232 7.14746 8.78154 6.86816 8.74768C6.58887 8.71383 6.27995 8.6969 5.94141 8.6969H2.84375ZM7.71875 17.609C8.04036 17.4397 8.27734 17.2112 8.42969 16.9235C8.58203 16.6357 8.6582 16.2802 8.6582 15.8571C8.6582 15.4847 8.58203 15.1715 8.42969 14.9176C8.27734 14.6637 8.04883 14.469 7.74414 14.3336C7.57487 14.2659 7.37174 14.2109 7.13477 14.1686C6.89779 14.1263 6.63542 14.1051 6.34766 14.1051H2.84375V17.8375H6.29688C6.60156 17.8375 6.8724 17.8164 7.10938 17.774C7.34635 17.7317 7.54948 17.6767 7.71875 17.609ZM14.7012 6.91956H20.7949V8.64612H14.7012V6.91956ZM22.0645 11.6422C22.2845 11.9638 22.4622 12.3024 22.5977 12.6578C22.7331 13.0133 22.8346 13.3942 22.9023 13.8004C22.9362 14.0374 22.9616 14.3252 22.9785 14.6637C22.9954 15.0022 23.0039 15.4 23.0039 15.8571H15.3359C15.3698 16.3818 15.4756 16.8261 15.6533 17.1901C15.8311 17.554 16.0977 17.8375 16.4531 18.0406C16.6562 18.1761 16.8848 18.2734 17.1387 18.3326C17.3926 18.3919 17.6634 18.4215 17.9512 18.4215C18.2728 18.4215 18.5605 18.3834 18.8145 18.3073C19.0684 18.2311 19.2884 18.1168 19.4746 17.9645C19.5931 17.8798 19.6989 17.7783 19.792 17.6598C19.8851 17.5413 19.974 17.4059 20.0586 17.2535H22.8516C22.8177 17.5582 22.7161 17.8671 22.5469 18.1803C22.3776 18.4934 22.1406 18.8024 21.8359 19.1071C21.362 19.6149 20.7949 19.9957 20.1348 20.2496C19.4746 20.5035 18.7214 20.6305 17.875 20.6305C17.181 20.6305 16.5251 20.5247 15.9072 20.3131C15.2894 20.1015 14.7181 19.7841 14.1934 19.361C13.6517 18.9378 13.2454 18.3792 12.9746 17.6852C12.7038 16.9912 12.5684 16.1617 12.5684 15.1969C12.5684 14.2998 12.6911 13.5084 12.9365 12.8229C13.182 12.1373 13.5417 11.5491 14.0156 11.0582C14.5065 10.5843 15.0651 10.2288 15.6914 9.99182C16.3177 9.75484 17.0117 9.63635 17.7734 9.63635C18.2305 9.63635 18.6663 9.67444 19.0811 9.75061C19.4958 9.82678 19.8893 9.9495 20.2617 10.1188C20.6172 10.288 20.9473 10.4996 21.252 10.7535C21.5566 11.0074 21.8275 11.3037 22.0645 11.6422ZM15.4121 14.0543H20.1348C20.1178 13.6989 20.0459 13.3857 19.9189 13.1149C19.792 12.844 19.627 12.6155 19.4238 12.4293C19.2038 12.2431 18.9583 12.1035 18.6875 12.0104C18.4167 11.9173 18.112 11.8707 17.7734 11.8707C17.4349 11.8707 17.126 11.9215 16.8467 12.0231C16.5674 12.1246 16.3346 12.2685 16.1484 12.4547C15.9453 12.6578 15.7845 12.8948 15.666 13.1656C15.5475 13.4365 15.4629 13.7327 15.4121 14.0543Z" fill="#541B96"/>
</svg>
