<svg width="26" height="27" viewBox="0 0 26 27" fill="none" xmlns="http://www.w3.org/2000/svg">
<path d="M23.5625 8.67151C23.7148 9.04391 23.8503 9.42476 23.9688 9.81409C24.0872 10.2034 24.1888 10.5927 24.2734 10.9821C24.3581 11.3883 24.4215 11.7946 24.4639 12.2008C24.5062 12.6071 24.5273 13.0218 24.5273 13.4449C24.5273 13.8681 24.5062 14.2828 24.4639 14.6891C24.4215 15.0953 24.3581 15.5016 24.2734 15.9078C24.1888 16.2972 24.0872 16.6865 23.9688 17.0758C23.8503 17.4651 23.7148 17.846 23.5625 18.2184C23.4102 18.5739 23.2367 18.9293 23.042 19.2848C22.8473 19.6403 22.64 19.9788 22.4199 20.3004C22.1999 20.622 21.9671 20.9352 21.7217 21.2399C21.4762 21.5446 21.2096 21.8323 20.9219 22.1031C20.651 22.3909 20.3633 22.6575 20.0586 22.903C19.7539 23.1484 19.4408 23.3811 19.1191 23.6012C18.7975 23.8212 18.459 24.0286 18.1035 24.2233C17.748 24.4179 17.3926 24.5914 17.0371 24.7438C16.6647 24.8961 16.2839 25.0315 15.8945 25.15C15.5052 25.2685 15.1159 25.3701 14.7266 25.4547C14.3203 25.5393 13.9141 25.6028 13.5078 25.6451C13.1016 25.6875 12.6868 25.7086 12.2637 25.7086C11.8405 25.7086 11.4258 25.6875 11.0195 25.6451C10.6133 25.6028 10.207 25.5393 9.80078 25.4547C9.39453 25.3701 9.00098 25.2685 8.62012 25.15C8.23926 25.0315 7.86263 24.8961 7.49023 24.7438C7.13477 24.5914 6.7793 24.4179 6.42383 24.2233C6.06836 24.0286 5.72982 23.8212 5.4082 23.6012C5.08659 23.3811 4.77344 23.1484 4.46875 22.903C4.16406 22.6575 3.8763 22.3909 3.60547 22.1031C3.31771 21.8323 3.05111 21.5446 2.80566 21.2399C2.56022 20.9352 2.32747 20.622 2.10742 20.3004C1.88737 19.9788 1.68001 19.6403 1.48535 19.2848C1.29069 18.9293 1.11719 18.5739 0.964844 18.2184C0.8125 17.846 0.677083 17.4651 0.558594 17.0758C0.440104 16.6865 0.338542 16.2972 0.253906 15.9078C0.169271 15.5016 0.105794 15.0953 0.0634766 14.6891C0.0211589 14.2828 0 13.8681 0 13.4449C0 13.0218 0.0211589 12.6071 0.0634766 12.2008C0.105794 11.7946 0.169271 11.3883 0.253906 10.9821C0.338542 10.5927 0.440104 10.2034 0.558594 9.81409C0.677083 9.42476 0.8125 9.04391 0.964844 8.67151C1.11719 8.31604 1.29069 7.96057 1.48535 7.6051C1.68001 7.24963 1.88737 6.91109 2.10742 6.58948C2.32747 6.26786 2.56022 5.95471 2.80566 5.65002C3.05111 5.34534 3.31771 5.05758 3.60547 4.78674C3.8763 4.49898 4.16406 4.23238 4.46875 3.98694C4.77344 3.7415 5.08659 3.50875 5.4082 3.2887C5.72982 3.06864 6.06836 2.86129 6.42383 2.66663C6.7793 2.47196 7.13477 2.29846 7.49023 2.14612C7.86263 1.99377 8.23926 1.85836 8.62012 1.73987C9.00098 1.62138 9.39453 1.51982 9.80078 1.43518C10.207 1.35055 10.6133 1.28707 11.0195 1.24475C11.4258 1.20243 11.8405 1.18127 12.2637 1.18127C12.6868 1.18127 13.1016 1.20243 13.5078 1.24475C13.9141 1.28707 14.3203 1.35055 14.7266 1.43518C15.1159 1.51982 15.5052 1.62138 15.8945 1.73987C16.2839 1.85836 16.6647 1.99377 17.0371 2.14612C17.3926 2.29846 17.748 2.47196 18.1035 2.66663C18.459 2.86129 18.7975 3.06864 19.1191 3.2887C19.4408 3.50875 19.7539 3.7415 20.0586 3.98694C20.3633 4.23238 20.651 4.49898 20.9219 4.78674C21.2096 5.05758 21.4762 5.34534 21.7217 5.65002C21.9671 5.95471 22.1999 6.26786 22.4199 6.58948C22.64 6.91109 22.8473 7.24963 23.042 7.6051C23.2367 7.96057 23.4102 8.31604 23.5625 8.67151ZM12.2637 3.18713C11.8405 3.18713 11.43 3.21252 11.0322 3.26331C10.6344 3.31409 10.2409 3.39026 9.85156 3.49182C9.88542 3.5426 10.0208 3.7288 10.2578 4.05042C10.4948 4.37203 10.7952 4.79944 11.1592 5.33264C11.5231 5.86584 11.9251 6.48792 12.3652 7.19885C12.8053 7.90979 13.2454 8.66305 13.6855 9.45862C15.6152 8.73075 16.9863 7.93518 17.7988 7.0719C18.6113 6.20862 19.026 5.76851 19.043 5.75159C18.1289 4.95601 17.0964 4.32971 15.9453 3.87268C14.7943 3.41565 13.5671 3.18713 12.2637 3.18713ZM7.89648 4.17737C7.18555 4.51591 6.51693 4.93062 5.89062 5.42151C5.28125 5.91239 4.73112 6.46252 4.24023 7.0719C3.74935 7.68127 3.33464 8.34143 2.99609 9.05237C2.65755 9.78023 2.40365 10.542 2.23438 11.3375C2.30208 11.3375 2.59831 11.3291 3.12305 11.3121C3.66471 11.3121 4.36296 11.274 5.21777 11.1979C6.07259 11.1217 7.05859 10.999 8.17578 10.8297C9.29297 10.6604 10.4694 10.4065 11.7051 10.068C11.248 9.28935 10.7995 8.55302 10.3594 7.85901C9.9362 7.165 9.54264 6.55139 9.17871 6.01819C8.81478 5.48499 8.52279 5.05758 8.30273 4.73596C8.06575 4.41435 7.93034 4.22815 7.89648 4.17737ZM4.64648 20.3004C4.64648 20.3004 4.64648 20.2962 4.64648 20.2877C4.64648 20.2793 4.64648 20.275 4.64648 20.275C4.64648 20.275 4.81576 20.0127 5.1543 19.4879C5.50977 18.9462 6.03451 18.3073 6.72852 17.5709C7.42253 16.8346 8.29427 16.0856 9.34375 15.3239C10.3763 14.5791 11.5866 13.9781 12.9746 13.5211C13.0423 13.5042 13.11 13.483 13.1777 13.4576C13.2454 13.4323 13.3132 13.4111 13.3809 13.3942C13.2454 13.1064 13.11 12.8186 12.9746 12.5309C12.8392 12.2431 12.6953 11.9554 12.543 11.6676C11.2227 12.0569 9.94466 12.3531 8.70898 12.5563C7.45638 12.7594 6.34342 12.9033 5.37012 12.9879C4.39681 13.0726 3.60547 13.1149 2.99609 13.1149C2.38672 13.1149 2.0651 13.1149 2.03125 13.1149C2.03125 13.1656 2.02702 13.2207 2.01855 13.2799C2.01009 13.3392 2.00586 13.3942 2.00586 13.4449C2.00586 14.7653 2.24284 16.0094 2.7168 17.1774C3.19076 18.3453 3.83398 19.3864 4.64648 20.3004ZM12.2637 23.7028C12.9746 23.7028 13.6644 23.6308 14.333 23.4869C15.0016 23.3431 15.6491 23.1442 16.2754 22.8903C16.2246 22.6533 16.1569 22.2978 16.0723 21.8239C15.9707 21.333 15.8311 20.7448 15.6533 20.0592C15.4756 19.3737 15.2598 18.6077 15.0059 17.7614C14.752 16.9319 14.4388 16.0433 14.0664 15.0953C14.0664 15.0953 14.0579 15.0996 14.041 15.108C14.0241 15.1165 14.0156 15.1207 14.0156 15.1207C12.4922 15.6455 11.2142 16.2802 10.1816 17.025C9.14909 17.7529 8.32389 18.4511 7.70605 19.1198C7.08822 19.7884 6.64388 20.3512 6.37305 20.8082C6.10221 21.2822 5.9668 21.5192 5.9668 21.5192C5.9668 21.5192 5.95833 21.5149 5.94141 21.5065C5.92448 21.498 5.89909 21.4768 5.86523 21.443C6.74544 22.1539 7.72721 22.7083 8.81055 23.1061C9.89388 23.5039 11.0449 23.7028 12.2637 23.7028ZM18.002 21.9508C18.5605 21.5615 19.0853 21.1129 19.5762 20.6051C20.0671 20.1142 20.4987 19.5768 20.8711 18.9928C21.2435 18.4088 21.5651 17.7867 21.8359 17.1266C22.0898 16.4664 22.2676 15.7809 22.3691 15.0699C22.2676 15.0361 21.5947 14.888 20.3506 14.6256C19.1064 14.3632 17.6549 14.359 15.9961 14.6129C16.3346 15.5439 16.6224 16.4156 16.8594 17.2281C17.0964 18.0576 17.2952 18.7939 17.4561 19.4371C17.6169 20.0804 17.7396 20.622 17.8242 21.0621C17.9089 21.5022 17.9681 21.7985 18.002 21.9508ZM15.3613 13.0133C16.2415 12.8948 17.1048 12.844 17.9512 12.861C18.7975 12.8779 19.5508 12.9202 20.2109 12.9879C20.8711 13.0556 21.4128 13.1318 21.8359 13.2164C22.2422 13.2841 22.4622 13.3265 22.4961 13.3434C22.4961 12.1246 22.2887 10.9694 21.874 9.87756C21.4593 8.78577 20.8965 7.80823 20.1855 6.94495C20.1686 6.94495 19.7158 7.41467 18.8271 8.35413C17.9385 9.29358 16.487 10.1696 14.4727 10.9821C14.5911 11.236 14.7054 11.4856 14.8154 11.7311C14.9255 11.9765 15.0397 12.2262 15.1582 12.4801C15.1921 12.5647 15.2259 12.6536 15.2598 12.7467C15.2936 12.8398 15.3275 12.9287 15.3613 13.0133Z" fill="#541B96"/>
</svg>
