<svg width="26" height="27" viewBox="0 0 26 27" fill="none" xmlns="http://www.w3.org/2000/svg">
<path d="M11.8066 1.63831C13.4147 1.63831 14.4727 1.64254 14.9805 1.651C15.4883 1.65946 16.0553 1.67216 16.6816 1.68909C17.3079 1.72294 17.8496 1.78642 18.3066 1.87952C18.7637 1.97262 19.1784 2.09534 19.5508 2.24768C19.9401 2.40002 20.304 2.58199 20.6426 2.79358C20.9811 3.00517 21.3112 3.28023 21.6328 3.61877C21.9714 3.94039 22.2464 4.27047 22.458 4.60901C22.6696 4.94755 22.8516 5.31148 23.0039 5.70081C23.1562 6.0732 23.279 6.48792 23.3721 6.94495C23.4652 7.40198 23.5286 7.94364 23.5625 8.56995C23.5794 9.19625 23.5921 9.76331 23.6006 10.2711C23.609 10.7789 23.6133 11.8369 23.6133 13.4449C23.6133 15.053 23.609 16.111 23.6006 16.6188C23.5921 17.1266 23.5794 17.6936 23.5625 18.3199C23.5286 18.9462 23.4652 19.4879 23.3721 19.9449C23.279 20.402 23.1562 20.8167 23.0039 21.1891C22.8516 21.5784 22.6696 21.9423 22.458 22.2809C22.2464 22.6194 21.9714 22.9495 21.6328 23.2711C21.3112 23.6097 20.9811 23.8847 20.6426 24.0963C20.304 24.3079 19.9401 24.4899 19.5508 24.6422C19.1784 24.7946 18.7637 24.9173 18.3066 25.0104C17.8496 25.1035 17.3079 25.167 16.6816 25.2008C16.0553 25.2177 15.4883 25.2304 14.9805 25.2389C14.4727 25.2474 13.4147 25.2516 11.8066 25.2516C10.1986 25.2516 9.14062 25.2474 8.63281 25.2389C8.125 25.2304 7.55794 25.2177 6.93164 25.2008C6.30534 25.167 5.76367 25.1035 5.30664 25.0104C4.84961 24.9173 4.4349 24.7946 4.0625 24.6422C3.67318 24.4899 3.30924 24.3079 2.9707 24.0963C2.63216 23.8847 2.30208 23.6097 1.98047 23.2711C1.64193 22.9495 1.36686 22.6194 1.15527 22.2809C0.943685 21.9423 0.761719 21.5784 0.609375 21.1891C0.457031 20.8167 0.33431 20.402 0.241211 19.9449C0.148112 19.4879 0.0846354 18.9462 0.0507812 18.3199C0.0338542 17.6936 0.0211589 17.1266 0.0126953 16.6188C0.00423177 16.111 0 15.053 0 13.4449C0 11.8369 0.00423177 10.7789 0.0126953 10.2711C0.0211589 9.76331 0.0338542 9.19625 0.0507812 8.56995C0.0846354 7.94364 0.148112 7.40198 0.241211 6.94495C0.33431 6.48792 0.457031 6.0732 0.609375 5.70081C0.761719 5.31148 0.943685 4.94755 1.15527 4.60901C1.36686 4.27047 1.64193 3.94039 1.98047 3.61877C2.30208 3.28023 2.63216 3.00517 2.9707 2.79358C3.30924 2.58199 3.67318 2.40002 4.0625 2.24768C4.4349 2.09534 4.84961 1.97262 5.30664 1.87952C5.76367 1.78642 6.30534 1.72294 6.93164 1.68909C7.55794 1.67216 8.125 1.65946 8.63281 1.651C9.14062 1.64254 10.1986 1.63831 11.8066 1.63831ZM10.7402 3.77112V3.74573C9.63997 3.74573 8.88249 3.75419 8.46777 3.77112C8.05306 3.78805 7.57487 3.80497 7.0332 3.8219C6.45768 3.85575 6.00065 3.91077 5.66211 3.98694C5.32357 4.06311 5.05273 4.14351 4.84961 4.22815C4.56185 4.32971 4.31217 4.45243 4.10059 4.59631C3.889 4.74019 3.68164 4.9137 3.47852 5.11682C3.27539 5.31995 3.10612 5.5273 2.9707 5.73889C2.83529 5.95048 2.70833 6.19169 2.58984 6.46252C2.50521 6.68258 2.4248 6.96187 2.34863 7.30042C2.27246 7.63896 2.21745 8.09599 2.18359 8.67151C2.16667 9.29781 2.15397 9.8564 2.14551 10.3473C2.13704 10.8382 2.13281 11.8707 2.13281 13.4449C2.13281 15.0192 2.13704 16.0517 2.14551 16.5426C2.15397 17.0335 2.16667 17.5921 2.18359 18.2184C2.21745 18.7939 2.27246 19.2509 2.34863 19.5895C2.4248 19.928 2.50521 20.1989 2.58984 20.402C2.70833 20.6897 2.83529 20.9394 2.9707 21.151C3.10612 21.3626 3.27539 21.5699 3.47852 21.7731C3.68164 21.9762 3.889 22.1455 4.10059 22.2809C4.31217 22.4163 4.56185 22.5433 4.84961 22.6617C5.05273 22.7295 5.32357 22.8056 5.66211 22.8903C6.00065 22.9749 6.45768 23.0341 7.0332 23.068C7.65951 23.0849 8.2181 23.0976 8.70898 23.1061C9.19987 23.1145 10.2324 23.1188 11.8066 23.1188C13.3809 23.1188 14.4134 23.1145 14.9043 23.1061C15.3952 23.0976 15.9538 23.0849 16.5801 23.068C17.1556 23.0341 17.6126 22.9749 17.9512 22.8903C18.2897 22.8056 18.5605 22.7295 18.7637 22.6617C19.0514 22.5433 19.3011 22.4163 19.5127 22.2809C19.7243 22.1455 19.9316 21.9762 20.1348 21.7731C20.3379 21.5699 20.5072 21.3626 20.6426 21.151C20.778 20.9394 20.9049 20.6897 21.0234 20.402C21.1081 20.1989 21.1885 19.928 21.2646 19.5895C21.3408 19.2509 21.3958 18.7939 21.4297 18.2184C21.4466 17.5921 21.4635 17.0335 21.4805 16.5426C21.4974 16.0517 21.5059 15.0192 21.5059 13.4449C21.5059 11.8707 21.4974 10.8382 21.4805 10.3473C21.4635 9.8564 21.4466 9.29781 21.4297 8.67151C21.3958 8.09599 21.3408 7.63896 21.2646 7.30042C21.1885 6.96187 21.1081 6.69104 21.0234 6.48792C20.9049 6.20016 20.778 5.95048 20.6426 5.73889C20.5072 5.5273 20.3379 5.31995 20.1348 5.11682C19.9316 4.9137 19.7243 4.74442 19.5127 4.60901C19.3011 4.47359 19.0514 4.34664 18.7637 4.22815C18.5605 4.14351 18.2897 4.06311 17.9512 3.98694C17.6126 3.91077 17.1556 3.85575 16.5801 3.8219C15.9538 3.80497 15.3952 3.79228 14.9043 3.78381C14.4134 3.77535 13.3809 3.77112 11.8066 3.77112C11.6035 3.77112 11.4173 3.77112 11.248 3.77112C11.0788 3.77112 10.9095 3.77112 10.7402 3.77112ZM11.8066 7.37659C12.653 7.37659 13.4401 7.53739 14.168 7.85901C14.9128 8.18062 15.556 8.61226 16.0977 9.15393C16.6393 9.6956 17.071 10.3388 17.3926 11.0836C17.7142 11.8284 17.875 12.6155 17.875 13.4449C17.875 14.2913 17.7142 15.0784 17.3926 15.8063C17.071 16.5511 16.6393 17.1943 16.0977 17.736C15.556 18.2776 14.9128 18.7093 14.168 19.0309C13.4401 19.3525 12.653 19.5133 11.8066 19.5133C10.9772 19.5133 10.1901 19.3525 9.44531 19.0309C8.71745 18.7093 8.07845 18.2776 7.52832 17.736C6.97819 17.1943 6.54232 16.5511 6.2207 15.8063C5.89909 15.0784 5.73828 14.2913 5.73828 13.4449C5.73828 12.6155 5.89909 11.8284 6.2207 11.0836C6.54232 10.3388 6.97819 9.6956 7.52832 9.15393C8.07845 8.61226 8.71745 8.18062 9.44531 7.85901C10.1901 7.53739 10.9772 7.37659 11.8066 7.37659ZM11.8066 9.5094C10.7233 9.5094 9.79655 9.89449 9.02637 10.6647C8.25618 11.4349 7.87109 12.3616 7.87109 13.4449C7.87109 14.5283 8.25618 15.455 9.02637 16.2252C9.79655 16.9954 10.7233 17.3805 11.8066 17.3805C12.89 17.3805 13.8167 16.9954 14.5869 16.2252C15.3571 15.455 15.7422 14.5283 15.7422 13.4449C15.7422 12.3616 15.3571 11.4349 14.5869 10.6647C13.8167 9.89449 12.89 9.5094 11.8066 9.5094ZM18.1035 5.7262C18.5098 5.7262 18.8483 5.86161 19.1191 6.13245C19.39 6.40328 19.5254 6.74182 19.5254 7.14807C19.5254 7.53739 19.39 7.86747 19.1191 8.13831C18.8483 8.40914 18.5098 8.54456 18.1035 8.54456C17.7142 8.54456 17.3841 8.40914 17.1133 8.13831C16.8424 7.86747 16.707 7.53739 16.707 7.14807C16.707 6.74182 16.8424 6.40328 17.1133 6.13245C17.3841 5.86161 17.7142 5.7262 18.1035 5.7262Z" fill="#541B96"/>
</svg>
